<svg width="499.960009765625px" height="102.239990234375px" xmlns="http://www.w3.org/2000/svg" viewBox="0.019995117187505684 23.8800048828125 499.960009765625 102.239990234375" style="background: rgba(0, 0, 0, 0) none repeat scroll 0% 0%;" preserveAspectRatio="xMidYMid"><defs><filter id="editing-extrude-glow"><feFlood flood-color="#333333" result="flood-1"></feFlood><feMorphology operator="erode" radius="1" in="SourceAlpha" result="erode"></feMorphology><feComposite operator="in" in="flood-1" in2="erode" result="comp1"></feComposite><feConvolveMatrix order="3,3" divisor="1" in="comp1" result="convolve" kernelMatrix="0 0 0 1 1 1 0 0 0"></feConvolveMatrix><feOffset dx="-3" dy="0" in="convolve" result="extrude"></feOffset><feComposite operator="in" in="flood-1" in2="extrude" result="comp-extrude"></feComposite><feFlood flood-color="#000000" result="flood-2"></feFlood><feComposite operator="in" in="flood-2" in2="SourceAlpha" result="comp2"></feComposite><feMorphology operator="dilate" radius="1" in="comp2" result="dilate"></feMorphology><feOffset dx="-4.5" dy="0" in="dilate" result="offset"></feOffset><feGaussianBlur in="offset" stdDeviation="5.8" result="blur"></feGaussianBlur><feComponentTransfer in="blur" result="shadow"><feFuncA type="linear" slope="0.8" intercept="-0.2"></feFuncA></feComponentTransfer><feMerge><feMergeNode in="shadow"></feMergeNode><feMergeNode in="comp-extrude"></feMergeNode><feMergeNode in="SourceGraphic"></feMergeNode></feMerge></filter></defs><g filter="url(#editing-extrude-glow)"><g transform="translate(73.91999816894531, 98.04500007629395)"><path d="M5.75-44.81L12.16-44.81L12.16-6.41L35.19-6.41L35.19 0L5.75 0L5.75-44.81ZM42.56-33.28L48.72-33.28L48.72 0L42.56 0L42.56-33.28ZM42.25-39.69L42.25-46.09L49.03-46.09L49.03-39.69L42.25-39.69ZM75.16 0L68.75 0L55.44-33.28L61.84-33.28L71.94-7.38L82.06-33.28L88.47-33.28L75.16 0ZM123.03-27.13L123.03-13.50L101-13.50L101-6.16L123.03-6.16L123.03 0L101 0L101 0Q99.75 0 98.63-0.48L98.63-0.48L98.63-0.48Q97.50-0.97 96.67-1.80L96.67-1.80L96.67-1.80Q95.84-2.63 95.36-3.75L95.36-3.75L95.36-3.75Q94.88-4.88 94.88-6.16L94.88-6.16L94.88-27.13L94.88-27.13Q94.88-28.41 95.36-29.53L95.36-29.53L95.36-29.53Q95.84-30.66 96.67-31.48L96.67-31.48L96.67-31.48Q97.50-32.31 98.63-32.80L98.63-32.80L98.63-32.80Q99.75-33.28 101-33.28L101-33.28L116.88-33.28L116.88-33.28Q118.16-33.28 119.28-32.80L119.28-32.80L119.28-32.80Q120.41-32.31 121.23-31.48L121.23-31.48L121.23-31.48Q122.06-30.66 122.55-29.53L122.55-29.53L122.55-29.53Q123.03-28.41 123.03-27.13L123.03-27.13ZM116.88-27.13L101-27.13L101-19.66L116.88-19.66L116.88-27.13ZM132.63-6.16L153.38-6.16L153.38-13.88L138.78-13.88L138.78-13.88Q137.50-13.88 136.38-14.36L136.38-14.36L136.38-14.36Q135.25-14.84 134.42-15.67L134.42-15.67L134.42-15.67Q133.59-16.50 133.11-17.63L133.11-17.63L133.11-17.63Q132.63-18.75 132.63-20.03L132.63-20.03L132.63-27.13L132.63-27.13Q132.63-28.41 133.11-29.53L133.11-29.53L133.11-29.53Q133.59-30.66 134.42-31.48L134.42-31.48L134.42-31.48Q135.25-32.31 136.38-32.80L136.38-32.80L136.38-32.80Q137.50-33.28 138.78-33.28L138.78-33.28L158.25-33.28L158.25-27.13L138.78-27.13L138.78-20.03L153.38-20.03L153.38-20.03Q154.66-20.03 155.77-19.55L155.77-19.55L155.77-19.55Q156.88-19.06 157.72-18.23L157.72-18.23L157.72-18.23Q158.56-17.41 159.05-16.28L159.05-16.28L159.05-16.28Q159.53-15.16 159.53-13.88L159.53-13.88L159.53-6.16L159.53-6.16Q159.53-4.88 159.05-3.75L159.05-3.75L159.05-3.75Q158.56-2.63 157.72-1.80L157.72-1.80L157.72-1.80Q156.88-0.97 155.77-0.48L155.77-0.48L155.77-0.48Q154.66 0 153.38 0L153.38 0L132.63 0L132.63-6.16ZM191.13-27.13L175.25-27.13L175.25-6.16L191.13-6.16L191.13-11.78L197.28-11.78L197.28-6.16L197.28-6.16Q197.28-4.88 196.80-3.75L196.80-3.75L196.80-3.75Q196.31-2.63 195.48-1.80L195.48-1.80L195.48-1.80Q194.66-0.97 193.53-0.48L193.53-0.48L193.53-0.48Q192.41 0 191.13 0L191.13 0L175.25 0L175.25 0Q174 0 172.88-0.48L172.88-0.48L172.88-0.48Q171.75-0.97 170.92-1.80L170.92-1.80L170.92-1.80Q170.09-2.63 169.61-3.75L169.61-3.75L169.61-3.75Q169.13-4.88 169.13-6.16L169.13-6.16L169.13-27.13L169.13-27.13Q169.13-28.41 169.61-29.53L169.61-29.53L169.61-29.53Q170.09-30.66 170.92-31.48L170.92-31.48L170.92-31.48Q171.75-32.31 172.88-32.80L172.88-32.80L172.88-32.80Q174-33.28 175.25-33.28L175.25-33.28L191.13-33.28L191.13-33.28Q192.41-33.28 193.53-32.80L193.53-32.80L193.53-32.80Q194.66-32.31 195.48-31.48L195.48-31.48L195.48-31.48Q196.31-30.66 196.80-29.53L196.80-29.53L196.80-29.53Q197.28-28.41 197.28-27.13L197.28-27.13L197.28-21.50L191.13-21.50L191.13-27.13ZM226.34-27.13L213.66-27.13L213.66 0L207.53 0L207.53-33.28L213.66-33.28L213.66-27.41L213.66-27.41Q213.72-28.63 214.22-29.70L214.22-29.70L214.22-29.70Q214.72-30.78 215.55-31.58L215.55-31.58L215.55-31.58Q216.38-32.38 217.47-32.83L217.47-32.83L217.47-32.83Q218.56-33.28 219.81-33.28L219.81-33.28L226.34-33.28L226.34-33.28Q227.63-33.28 228.73-32.80L228.73-32.80L228.73-32.80Q229.84-32.31 230.69-31.48L230.69-31.48L230.69-31.48Q231.53-30.66 232.02-29.53L232.02-29.53L232.02-29.53Q232.50-28.41 232.50-27.13L232.50-27.13L232.50-21.50L226.34-21.50L226.34-27.13ZM268.31-27.13L268.31-13.50L246.28-13.50L246.28-6.16L268.31-6.16L268.31 0L246.28 0L246.28 0Q245.03 0 243.91-0.48L243.91-0.48L243.91-0.48Q242.78-0.97 241.95-1.80L241.95-1.80L241.95-1.80Q241.13-2.63 240.64-3.75L240.64-3.75L240.64-3.75Q240.16-4.88 240.16-6.16L240.16-6.16L240.16-27.13L240.16-27.13Q240.16-28.41 240.64-29.53L240.64-29.53L240.64-29.53Q241.13-30.66 241.95-31.48L241.95-31.48L241.95-31.48Q242.78-32.31 243.91-32.80L243.91-32.80L243.91-32.80Q245.03-33.28 246.28-33.28L246.28-33.28L262.16-33.28L262.16-33.28Q263.44-33.28 264.56-32.80L264.56-32.80L264.56-32.80Q265.69-32.31 266.52-31.48L266.52-31.48L266.52-31.48Q267.34-30.66 267.83-29.53L267.83-29.53L267.83-29.53Q268.31-28.41 268.31-27.13L268.31-27.13ZM262.16-27.13L246.28-27.13L246.28-19.66L262.16-19.66L262.16-27.13ZM306.72-27.13L306.72-13.50L284.69-13.50L284.69-6.16L306.72-6.16L306.72 0L284.69 0L284.69 0Q283.44 0 282.31-0.48L282.31-0.48L282.31-0.48Q281.19-0.97 280.36-1.80L280.36-1.80L280.36-1.80Q279.53-2.63 279.05-3.75L279.05-3.75L279.05-3.75Q278.56-4.88 278.56-6.16L278.56-6.16L278.56-27.13L278.56-27.13Q278.56-28.41 279.05-29.53L279.05-29.53L279.05-29.53Q279.53-30.66 280.36-31.48L280.36-31.48L280.36-31.48Q281.19-32.31 282.31-32.80L282.31-32.80L282.31-32.80Q283.44-33.28 284.69-33.28L284.69-33.28L300.56-33.28L300.56-33.28Q301.84-33.28 302.97-32.80L302.97-32.80L302.97-32.80Q304.09-32.31 304.92-31.48L304.92-31.48L304.92-31.48Q305.75-30.66 306.23-29.53L306.23-29.53L306.23-29.53Q306.72-28.41 306.72-27.13L306.72-27.13ZM300.56-27.13L284.69-27.13L284.69-19.66L300.56-19.66L300.56-27.13ZM346.41-27.13L346.41 0L340.25 0L340.25-27.13L323.09-27.13L323.09 0L316.97 0L316.97-33.28L323.09-33.28L323.09-27.41L323.09-27.41Q323.16-28.63 323.66-29.70L323.66-29.70L323.66-29.70Q324.16-30.78 324.98-31.58L324.98-31.58L324.98-31.58Q325.81-32.38 326.91-32.83L326.91-32.83L326.91-32.83Q328-33.28 329.25-33.28L329.25-33.28L340.25-33.28L340.25-33.28Q341.53-33.28 342.66-32.80L342.66-32.80L342.66-32.80Q343.78-32.31 344.61-31.48L344.61-31.48L344.61-31.48Q345.44-30.66 345.92-29.53L345.92-29.53L345.92-29.53Q346.41-28.41 346.41-27.13L346.41-27.13Z" fill="rgba(0%,0%,0%,0)"></path></g></g><style>text {
  font-size: 64px;
  font-family: Arial Black;
  dominant-baseline: central;
  text-anchor: middle;
}</style></svg>